<svg xmlns="http://www.w3.org/2000/svg" viewBox="0 0 64 64" fill="none" role="img" aria-label="World Cup OS">
  <defs>
    <linearGradient id="wmos-g" x1="12" y1="10" x2="52" y2="54" gradientUnits="userSpaceOnUse">
      <stop stop-color="#34d399"/>
      <stop offset="0.45" stop-color="#2dd4bf"/>
      <stop offset="1" stop-color="#9945FF"/>
    </linearGradient>
    <radialGradient id="wmos-glow" cx="32" cy="30" r="26" gradientUnits="userSpaceOnUse">
      <stop stop-color="#34d399" stop-opacity="0.35"/>
      <stop offset="0.55" stop-color="#9945FF" stop-opacity="0.18"/>
      <stop offset="1" stop-color="#0a0f0d" stop-opacity="0"/>
    </radialGradient>
    <filter id="wmos-soft" x="-20%" y="-20%" width="140%" height="140%">
      <feGaussianBlur stdDeviation="1.2" result="b"/>
      <feMerge>
        <feMergeNode in="b"/>
        <feMergeNode in="SourceGraphic"/>
      </feMerge>
    </filter>
  </defs>
  <rect width="64" height="64" rx="16" fill="#080c0a"/>
  <circle cx="32" cy="32" r="26" fill="url(#wmos-glow)"/>
  <!-- Shield -->
  <path
    d="M32 10.5c6.2 3.2 12.4 4.2 18.2 4.2v16.6c0 9.8-6.4 17.4-18.2 22.2C20.2 48.7 13.8 41.1 13.8 31.3V14.7c5.8 0 12-1 18.2-4.2Z"
    stroke="url(#wmos-g)"
    stroke-width="2.4"
    stroke-linejoin="round"
    filter="url(#wmos-soft)"
  />
  <!-- Ball -->
  <circle cx="32" cy="31" r="11.5" fill="url(#wmos-g)" opacity="0.95"/>
  <path
    d="M32 22.5c1.6 1.4 2.6 3.4 2.6 5.6 0 .6-.1 1.2-.2 1.7l-2.4.9-2.4-.9c-.1-.5-.2-1.1-.2-1.7 0-2.2 1-4.2 2.6-5.6Z"
    fill="#06100c"
    opacity="0.55"
  />
  <path
    d="M26.2 28.8 32 31l5.8-2.2M32 31v8.2M26.8 36.2 32 39.2l5.2-3M24.8 33.2l1.4 3M39.2 33.2l-1.4 3"
    stroke="#06100c"
    stroke-width="1.5"
    stroke-linecap="round"
    stroke-linejoin="round"
    opacity="0.65"
  />
  <circle cx="32" cy="31" r="11.5" stroke="url(#wmos-g)" stroke-width="1.2" opacity="0.5"/>
</svg>
