<svg xmlns="http://www.w3.org/2000/svg" viewBox="0 0 64 64" fill="none" role="img" aria-label="MatchMind AI">
  <defs>
    <linearGradient id="mm-g" x1="14" y1="12" x2="50" y2="52" gradientUnits="userSpaceOnUse">
      <stop stop-color="#4ade80"/>
      <stop offset="0.55" stop-color="#22d3ee"/>
      <stop offset="1" stop-color="#06b6d4"/>
    </linearGradient>
    <radialGradient id="mm-glow" cx="32" cy="30" r="28" gradientUnits="userSpaceOnUse">
      <stop stop-color="#22d3ee" stop-opacity="0.4"/>
      <stop offset="1" stop-color="#070b12" stop-opacity="0"/>
    </radialGradient>
  </defs>
  <!-- Circular badge — distinct from AgentX squircle -->
  <circle cx="32" cy="32" r="30" fill="#070b12"/>
  <circle cx="32" cy="32" r="30" fill="url(#mm-glow)"/>
  <circle cx="32" cy="32" r="27.5" stroke="url(#mm-g)" stroke-width="1.6" opacity="0.85"/>
  <!-- Outer pulse ring -->
  <circle cx="32" cy="32" r="22" stroke="url(#mm-g)" stroke-width="1.4" opacity="0.55"/>
  <!-- Soccer facet ball -->
  <circle cx="32" cy="32" r="15.5" fill="url(#mm-g)"/>
  <path
    d="M32 18.5c2.2 2 3.6 4.8 3.6 7.9 0 .9-.1 1.7-.4 2.5l-3.2 1.1-3.2-1.1c-.3-.8-.4-1.6-.4-2.5 0-3.1 1.4-5.9 3.6-7.9Z"
    fill="#041018"
    opacity="0.45"
  />
  <path
    d="M24.2 28.2 32 31.2l7.8-3M32 31.2v10.5M25.2 38.5 32 41.7l6.8-3.2M22.5 34.2l1.8 3.8M41.5 34.2l-1.8 3.8"
    stroke="#041018"
    stroke-width="1.4"
    stroke-linecap="round"
    stroke-linejoin="round"
    opacity="0.55"
  />
  <!-- Broadcast play cue -->
  <path d="M28.2 26.5v11l10-5.5-10-5.5Z" fill="#041018" opacity="0.72"/>
</svg>
