<svg xmlns="http://www.w3.org/2000/svg" viewBox="0 0 64 64" fill="none" role="img" aria-label="AgentX TxLINE Trader">
  <defs>
    <linearGradient id="ax-g" x1="16" y1="10" x2="48" y2="54" gradientUnits="userSpaceOnUse">
      <stop stop-color="#f5e6a3"/>
      <stop offset="0.4" stop-color="#D4AF37"/>
      <stop offset="1" stop-color="#a78bfa"/>
    </linearGradient>
    <radialGradient id="ax-glow" cx="32" cy="28" r="26" gradientUnits="userSpaceOnUse">
      <stop stop-color="#D4AF37" stop-opacity="0.34"/>
      <stop offset="0.55" stop-color="#a78bfa" stop-opacity="0.18"/>
      <stop offset="1" stop-color="#0a0e1a" stop-opacity="0"/>
    </radialGradient>
    <filter id="ax-soft" x="-20%" y="-20%" width="140%" height="140%">
      <feGaussianBlur stdDeviation="1.1" result="b"/>
      <feMerge>
        <feMergeNode in="b"/>
        <feMergeNode in="SourceGraphic"/>
      </feMerge>
    </filter>
  </defs>
  <rect width="64" height="64" rx="16" fill="#070a14"/>
  <circle cx="32" cy="32" r="26" fill="url(#ax-glow)"/>
  <!-- Agent node ring -->
  <circle cx="32" cy="32" r="17.5" stroke="url(#ax-g)" stroke-width="1.8" stroke-dasharray="8 5" opacity="0.9" filter="url(#ax-soft)"/>
  <!-- Hex nodes -->
  <g fill="url(#ax-g)">
    <path d="M32 9.2l2.2 1.3v2.5L32 14.3l-2.2-1.3v-2.5L32 9.2Z"/>
    <path d="M48.8 18.8l2.2 1.3v2.5l-2.2 1.3-2.2-1.3v-2.5l2.2-1.3Z"/>
    <path d="M48.8 41.2l2.2 1.3v2.5l-2.2 1.3-2.2-1.3v-2.5l2.2-1.3Z"/>
    <path d="M32 49.7l2.2 1.3v2.5L32 54.8l-2.2-1.3v-2.5l2.2-1.3Z"/>
    <path d="M15.2 41.2l2.2 1.3v2.5l-2.2 1.3-2.2-1.3v-2.5l2.2-1.3Z"/>
    <path d="M15.2 18.8l2.2 1.3v2.5l-2.2 1.3-2.2-1.3v-2.5l2.2-1.3Z"/>
  </g>
  <!-- Bolt -->
  <path
    d="M35.8 16.5 24.2 34.2h7.1l-2.4 13.3 12.8-18.8h-7.2l1.3-12.2Z"
    fill="url(#ax-g)"
    filter="url(#ax-soft)"
  />
</svg>
